<!DOCTYPE svg PUBLIC "-//W3C//DTD SVG 1.1//EN" "http://www.w3.org/Graphics/SVG/1.1/DTD/svg11.dtd">
<svg width="88" height="79" viewBox="0 0 88 79" fill="none" xmlns="http://www.w3.org/2000/svg">
<path fillRule="evenodd" clipRule="evenodd" d="M30.0894 0.186506C29.6176 0.286983 28.9974 0.4455 28.7112 0.538821C27.8083 0.833196 25.6986 1.90823 23.7612 3.06108C20.1497 5.21025 13.8254 8.26044 8.7984 10.2778C5.63859 11.5458 3.62363 12.2083 1.12287 12.8014C0.185336 13.0237 -0.183024 13.2385 0.0856171 13.4061C0.395308 13.5994 1.43119 13.6552 4.71316 13.6552H8.10933L13.7696 11.0078C18.5732 8.76114 20.9362 7.6704 25.1795 5.74106C25.5264 5.58334 25.8267 5.47074 25.8466 5.49091C25.8665 5.51109 22.0832 7.46308 17.4391 9.82872C12.7949 12.1942 8.70557 14.299 8.35159 14.5058C7.74077 14.8625 6.78039 15.7662 6.78039 15.9841C6.78039 16.1725 7.21983 16.3751 7.91245 16.5062C8.39047 16.5967 9.52095 16.6351 11.6039 16.6315L14.6063 16.6264L17.5103 15.328C20.9919 13.7714 23.7656 12.4852 25.2378 11.7447C26.8554 10.9312 26.3774 11.2564 24.1058 12.5151C21.3762 14.0275 18.4422 15.548 16.7558 16.324C15.2028 17.0386 14.3877 17.5545 13.834 18.1733C13.3425 18.7226 13.3657 19.0416 13.9173 19.3201C14.2695 19.4979 14.4982 19.5179 16.0829 19.5107C17.9056 19.5023 19.0347 19.3659 20.5822 18.967C21.1653 18.8167 21.6462 18.5829 22.65 17.9619C24.0485 17.0968 25.8647 15.9533 26.7882 15.3565C27.0996 15.1554 27.3543 15.0153 27.3543 15.0452C27.3543 15.1246 24.4988 17.2532 23.085 18.2276C22.4166 18.6884 21.7591 19.2121 21.6238 19.3915C20.9011 20.3498 20.777 21.1174 21.2836 21.4967C21.5163 21.6709 21.6947 21.7038 22.3664 21.6961C23.5622 21.6825 25.2987 21.1448 27.1908 20.2026C27.9984 19.8004 29.3846 18.7216 30.1106 17.9302C30.2459 17.7827 30.4453 17.6157 30.5535 17.5593C30.7807 17.4407 30.5282 17.7315 29.0255 19.319C27.6201 20.8035 26.9752 22.1018 27.1979 22.9978C27.4037 23.8252 29.2954 23.6535 31.3753 22.6186C32.2458 22.1855 32.6476 21.8087 33.5244 20.603C33.778 20.2544 34.0025 19.9861 34.0231 20.0071C34.0779 20.0624 33.431 21.3173 33.0214 21.9504C32.2017 23.2175 32.8413 24.33 34.327 24.2215C35.4393 24.1403 36.8015 23.1792 37.5579 21.9419C38.1028 21.0507 38.0903 21.174 37.503 22.4847C37.1126 23.356 37.1117 23.6706 37.4987 24.0613C37.7737 24.3389 37.8381 24.3593 38.2616 24.3025C39.3764 24.1529 40.8706 23.0903 41.7849 21.7968L42.2218 21.1786L42.1552 16.516L42.0887 11.8535L40.8986 11.7449C39.4963 11.6171 38.9777 11.4337 38.5782 10.9245C37.9667 10.145 37.6768 9.09517 37.4938 6.99648C37.3004 4.77953 36.8713 3.61684 35.8776 2.61763C34.7842 1.51825 33.8447 1.23192 31.5872 1.31044C29.1725 1.39442 28.3625 1.67001 23.9581 3.90614C22.4963 4.64824 21.2559 5.25508 21.2018 5.25458C21.0428 5.25309 27.2281 2.08821 28.1145 1.71741C29.4667 1.15192 30.4639 0.953947 31.9809 0.950071C34.0176 0.944903 35.2459 1.37444 36.1962 2.42433C37.1757 3.50622 37.6052 4.72983 37.8408 7.10968C38.0446 9.16642 38.3809 10.2175 39.0348 10.8412C39.3945 11.1844 39.6924 11.294 40.4622 11.3665C40.8056 11.3988 41.2969 11.4478 41.5542 11.4753L42.0218 11.5253V11.0377V10.5502L41.1604 10.4792C39.9963 10.3832 39.6814 10.26 39.297 9.7502C38.8422 9.14674 38.5887 8.21512 38.4209 6.52938C38.1689 3.99728 37.7272 2.74772 36.6876 1.62568C35.9922 0.875235 35.0731 0.367086 33.9989 0.139398C33.0383 -0.0642395 31.161 -0.04158 30.0894 0.186506ZM54.2821 0.0933831C53.0229 0.293641 52.1102 0.759553 51.2921 1.61962C50.3163 2.64556 49.8121 3.91717 49.6017 5.88249C49.3972 7.79324 49.3098 8.32106 49.1076 8.86668C48.6438 10.1184 48.2414 10.4055 46.8248 10.4959C46.3217 10.528 45.8775 10.6035 45.8378 10.6636C45.798 10.7239 45.7648 10.9408 45.7639 11.1458L45.7625 11.5184H46.1834C46.8931 11.5184 48.2369 11.3178 48.5213 11.1693C49.3908 10.7153 49.9021 9.4278 50.0926 7.21234C50.3824 3.84134 51.3879 2.10451 53.511 1.30716C54.066 1.09865 54.4059 1.04806 55.5204 1.00761C57.9719 0.918864 58.8153 1.1868 63.3507 3.49479C65.2008 4.43635 66.6983 5.22317 66.6783 5.24325C66.6583 5.26342 65.3439 4.62975 63.7575 3.83508C59.9594 1.93258 59.2146 1.64447 57.4275 1.38567C55.0194 1.03693 53.1164 1.50225 51.9772 2.71821C51.0236 3.73629 50.6061 4.99032 50.3874 7.4934C50.2365 9.22168 49.9699 10.1261 49.3671 10.9538C48.9567 11.5174 47.9571 11.8101 46.4269 11.8146L45.7625 11.8166L45.7608 12.7856C45.7599 13.3186 45.7159 15.3629 45.663 17.3287L45.567 20.9028L45.8862 21.4506C46.9821 23.3309 49.6393 24.898 50.4416 24.1371C50.7977 23.7993 50.7665 23.2536 50.3365 22.3009C50.1451 21.8769 50.0055 21.5129 50.0263 21.4919C50.047 21.4709 50.2261 21.719 50.4244 22.0432C51.0639 23.0894 52.2971 24.0305 53.3056 24.242C53.9675 24.381 54.604 24.2241 54.9782 23.8298C55.2103 23.5852 55.2549 23.4534 55.2549 23.012C55.2549 22.5745 55.1952 22.3947 54.9017 21.9464C54.5707 21.4411 53.8345 20.0394 53.8345 19.9146C53.8345 19.8836 54.1665 20.3032 54.5723 20.847C55.4672 22.0465 55.6934 22.2452 56.7326 22.7459C57.7825 23.2519 58.8403 23.5439 59.6234 23.5439C60.1888 23.5439 60.2768 23.5151 60.5487 23.2406C60.8234 22.9632 60.8437 22.898 60.7865 22.4764C60.6586 21.5341 60.0914 20.626 58.7258 19.1768C57.3933 17.7627 56.8523 17.0414 57.8345 17.9885C59.6444 19.7335 60.3419 20.1822 62.5464 21.0196C63.9655 21.5588 64.9775 21.7807 65.8201 21.7378C66.4783 21.7042 66.5789 21.6717 66.7899 21.4239C67.0849 21.0778 67.0846 20.844 66.7887 20.2023C66.4686 19.5085 65.91 18.9701 64.5089 18.0056C63.2463 17.1364 60.8733 15.3739 60.6268 15.1224C60.5456 15.0395 60.745 15.1406 61.0698 15.347C66.8595 19.0258 66.6571 18.9227 68.8958 19.3349C70.2545 19.585 73.6355 19.5923 74.0815 19.346C74.2536 19.2509 74.4225 19.0837 74.4569 18.9745C74.6205 18.454 73.5089 17.4696 71.8982 16.7086C68.9724 15.3262 62.0395 11.6666 61.6607 11.3048C61.6068 11.2532 62.4263 11.6337 63.4819 12.1505C65.6022 13.1885 67.3711 14.0002 70.9071 15.5575L73.2628 16.5951L74.5985 16.7008C76.7207 16.8687 79.9721 16.6764 80.7812 16.3351C81.2431 16.1402 81.1974 15.8728 80.6041 15.2986C79.9904 14.7045 79.4081 14.3928 69.2895 9.24354C64.9852 7.05313 61.5001 5.26005 61.5447 5.25905C61.6592 5.25647 67.5459 7.94599 74.2177 11.049L79.8842 13.6844L81.896 13.7537C84.0284 13.827 87.1332 13.6899 87.6777 13.4983C88.3218 13.2716 88.1034 13.1557 86.0734 12.6475C84.1798 12.1735 83.0535 11.8132 80.7695 10.9511C75.6618 9.02291 68.3326 5.54915 64.023 3.01387C60.9647 1.21473 59.8908 0.717116 58.1166 0.277342C57.201 0.05035 55.1663 -0.0472449 54.2821 0.0933831ZM42.9077 1.6873C41.2438 2.44679 40.7931 4.66295 42.039 5.95901C43.0807 7.04269 44.7567 7.06118 45.8072 6.00045C46.0117 5.79413 46.2614 5.44182 46.3623 5.21761C46.6088 4.66951 46.6106 3.56317 46.3658 3.01904C46.1347 2.50533 45.3033 1.75071 44.8013 1.59885C44.2086 1.41956 43.4128 1.45673 42.9077 1.6873ZM41.5347 6.08692C41.4778 6.14436 41.4311 6.33647 41.4311 6.51377C41.4311 6.87384 41.7157 7.14555 42.0929 7.14555C42.3139 7.14555 42.3171 7.16275 42.3185 8.363C42.3192 9.03255 42.407 14.8577 42.5138 21.3077C42.6204 27.7577 42.7084 33.3538 42.7093 33.7435C42.7108 34.4494 42.7119 34.4524 43.0308 34.5812C43.2068 34.6523 44.3341 35.19 45.536 35.776L47.7215 36.8415L49.2299 36.2302C50.0595 35.8941 51.0914 35.3966 51.523 35.1247C53.1052 34.128 54.3696 32.6224 54.6368 31.4169C54.8923 30.2644 54.3648 28.7802 53.2916 27.6316C52.948 27.264 52.6376 26.8448 52.6016 26.7002C52.4518 26.0978 51.5215 25.4306 50.3357 25.0752C49.5012 24.825 47.9963 24.8225 47.5344 25.0706C46.763 25.4849 46.1266 26.4166 46.4646 26.6366C46.5778 26.7102 46.5779 26.738 46.4656 26.8111C46.0722 27.0673 47.1265 28.1012 48.4658 28.7724C49.1596 29.1202 49.5449 29.2491 50.0479 29.3017C50.6044 29.3598 50.7506 29.4155 50.9447 29.6434C51.3353 30.1018 51.2329 30.7267 50.6749 31.2901C50.1423 31.8278 47.5456 33.5246 46.2582 34.1761C45.5951 34.5118 45.0345 34.7682 45.0124 34.7459C44.9905 34.7236 45.1059 28.8578 45.269 21.7106C45.4321 14.5635 45.5656 8.36241 45.5656 7.93069C45.5656 7.17994 45.5754 7.14555 45.7897 7.14555C46.1736 7.14555 46.4515 6.87434 46.4515 6.49976C46.4515 6.31481 46.4093 6.13711 46.3578 6.10491C46.3062 6.07281 46.0648 6.19992 45.8213 6.38755C44.6442 7.29473 42.9708 7.23897 41.9306 6.25796C41.726 6.06505 41.6072 6.01367 41.5347 6.08692ZM37.6684 24.9875C36.3389 25.2547 35.3368 25.9057 34.9955 26.7242C34.9157 26.9155 34.601 27.3308 34.296 27.6472C33.3886 28.5886 32.7649 30.1634 32.9107 31.145C33.1767 32.9354 35.1694 34.907 37.8381 36.0203C38.3253 36.2235 40.0087 36.8694 41.5788 37.4556C45.1443 38.7867 45.7995 39.0633 46.5716 39.564C48.3494 40.7169 48.9499 41.6724 48.4449 42.5446C48.2559 42.8709 47.4815 43.4617 43.646 46.2047C41.558 47.6979 40.8769 48.2463 39.9482 49.1816C38.9959 50.1409 38.7438 50.4616 38.4054 51.1442C37.901 52.1615 37.8029 52.813 38.0324 53.6218C38.4597 55.1281 39.6774 56.7578 41.7162 58.5525C43.2001 59.8586 45.292 61.9294 45.7235 62.5192C46.154 63.1077 46.4515 63.9755 46.4515 64.6426C46.4515 65.3813 46.0385 66.1401 44.6796 67.8982C43.0304 70.0319 42.3833 71.2291 42.0636 72.7388C41.903 73.4967 41.8871 74.5963 42.0277 75.212C42.1361 75.6872 42.6036 76.7142 42.7114 76.7142C42.7483 76.7142 42.6718 76.3229 42.5414 75.8446C42.0671 74.1044 42.4508 72.4347 43.7265 70.6864C43.9718 70.3503 44.8836 69.3316 45.7526 68.4229C47.0879 67.0263 47.3846 66.6593 47.6688 66.0526C48.4499 64.385 48.3772 63.3769 47.3639 61.8239C47.1616 61.5137 45.7756 60.0078 44.2839 58.4773C40.8119 54.9148 40.178 54.0366 40.2699 52.9166C40.3972 51.367 41.7082 50.1317 46.3225 47.2135C49.9271 44.9338 50.7682 44.2385 51.3315 43.0728C51.5852 42.5477 51.6195 42.3696 51.6189 41.582C51.6181 40.5634 51.4879 40.2258 50.7861 39.4221C49.9542 38.4694 48.0157 37.3774 42.2734 34.6263C40.2343 33.6494 37.5255 31.934 36.8763 31.2086C36.3344 30.6031 36.2781 30.1151 36.6908 29.6006C36.8355 29.4202 37.0138 29.3565 37.524 29.3033C38.8798 29.1615 41.2342 27.6848 41.2342 26.9761C41.2342 26.8922 41.1845 26.8235 41.1238 26.8235C41.047 26.8235 41.0504 26.7784 41.1347 26.6758C41.3189 26.4517 41.1767 26.0688 40.7263 25.5755C40.0784 24.8659 39.1564 24.6886 37.6684 24.9875ZM39.3536 25.8212C39.5955 25.9758 39.3979 26.2272 39.0345 26.2272C38.6158 26.2272 38.3819 25.9952 38.6448 25.8407C38.8631 25.7125 39.1704 25.704 39.3536 25.8212ZM48.9253 25.8367C49.2068 25.9887 48.9848 26.2272 48.5618 26.2272C48.1882 26.2272 48.0538 26.0858 48.227 25.875C48.3676 25.7041 48.6512 25.6885 48.9253 25.8367ZM39.1178 37.7226C36.9013 39.0181 35.7833 40.5147 35.9529 41.9599C36.0287 42.606 36.4795 43.5549 36.9809 44.1238C37.5274 44.744 38.1662 45.2255 39.9343 46.3501L41.44 47.3076L42.1 46.8376C42.4631 46.5791 43.207 46.0413 43.7532 45.6424L44.7464 44.9172L44.8131 42.0637C44.8498 40.4943 44.8428 39.1728 44.7975 39.1269C44.7365 39.0654 39.9904 37.2502 39.9178 37.2606C39.9109 37.2616 39.5509 37.4695 39.1178 37.7226ZM42.8833 45.1894C42.8607 45.3978 42.7424 45.334 41.5296 44.4592C39.5038 42.9979 39.2833 42.8145 39.1095 42.4449C38.6494 41.4659 39.7131 40.1796 41.8741 39.1017L42.7601 38.6597L42.8341 41.8104C42.8747 43.5433 42.8969 45.0638 42.8833 45.1894ZM44.5696 48.8129L43.0554 49.8324L43.0246 52.0677C43.0076 53.2972 43.023 54.847 43.0586 55.5115L43.1234 56.72L44.2134 57.8222C44.813 58.4285 45.361 58.9245 45.4314 58.9245C45.5018 58.9245 46.1293 58.3543 46.8261 57.6573C48.6755 55.8073 49.692 54.1179 49.698 52.8837C49.7024 51.9806 49.1227 50.7629 48.1698 49.6737C47.6948 49.131 46.2575 47.7975 46.1446 47.7949C46.1111 47.7941 45.4024 48.2523 44.5696 48.8129ZM46.332 50.9096C47.3297 51.9771 47.596 53.0947 47.0946 54.1097C46.8019 54.7023 45.7902 55.9877 45.026 56.738L44.4693 57.2847L44.5286 53.9056C44.5613 52.0471 44.6118 50.2916 44.6409 50.0045L44.6939 49.4824L45.2527 49.9176C45.5602 50.1569 46.0459 50.6034 46.332 50.9096ZM41.3674 60.4715C39.4185 62.633 39.0405 63.8219 39.7337 65.6095C40.0766 66.4934 40.6477 67.2429 42.0439 68.6407L42.9635 69.5615L43.5949 68.6904L44.2263 67.8193L44.3026 64.6887L44.3789 61.5582L43.3725 60.5913C42.8191 60.0595 42.3142 59.6235 42.2506 59.6224C42.187 59.6212 41.7896 60.0033 41.3674 60.4715ZM43.2246 65.1514C43.2398 66.8544 43.2201 68.2276 43.1808 68.203C42.9365 68.0503 41.4905 65.936 41.3211 65.4838C40.9094 64.3848 41.2948 63.1318 42.4345 61.8636L43.0532 61.1752L43.1252 61.6151C43.1646 61.8571 43.2094 63.4484 43.2246 65.1514ZM44.2616 70.6269C44.1198 70.7773 43.8444 71.1683 43.6496 71.4957L43.2954 72.0912L43.3531 75.1232C43.4058 77.8882 43.5032 79 43.6925 79C43.9033 79 43.9953 77.9945 44.0528 75.0626C44.0869 73.3199 44.1442 71.7152 44.1801 71.4965L44.2454 71.099L44.5628 71.7459C45.0634 72.7663 45.0714 73.2094 44.6177 74.8165C44.509 75.2017 44.7494 74.9758 45.0182 74.4403C45.3503 73.7787 45.4691 73.02 45.3545 72.293C45.2644 71.7211 44.7218 70.3536 44.585 70.3536C44.549 70.3536 44.4035 70.4766 44.2616 70.6269Z" fill="black"/>
</svg>
