<!DOCTYPE svg PUBLIC "-//W3C//DTD SVG 1.1//EN" "http://www.w3.org/Graphics/SVG/1.1/DTD/svg11.dtd">
<svg width="68" height="95" viewBox="0 0 68 95" fill="none" xmlns="http://www.w3.org/2000/svg">
<path d="M33.6934 93.8878C33.6934 93.8878 52.4553 84.7361 64.2363 68.9806C65.877 66.7895 66.7636 64.1296 66.7636 61.3984V0.496094H33.6934" fill="#FEFEFE"/>
<path d="M33.6934 93.8878C33.6934 93.8878 52.4553 84.7361 64.2363 68.9806C65.877 66.7895 66.7636 64.1296 66.7636 61.3984V0.496094H33.6934" stroke="#EFF0F2" stroke-width="0.814375" stroke-miterlimit="10"/>
<path d="M34.0703 93.8878C34.0703 93.8878 15.2473 84.7055 3.4765 68.9093C1.87649 66.7589 1 64.1602 1 61.4799V0.496094H34.0703" fill="#FEFEFE"/>
<path d="M34.0703 93.8878C34.0703 93.8878 15.2473 84.7055 3.4765 68.9093C1.87649 66.7589 1 64.1602 1 61.4799V0.496094H34.0703" stroke="#EFF0F2" stroke-width="0.814375" stroke-miterlimit="10"/>
<path d="M33.7236 87.916C33.7236 87.916 51.0282 79.4777 60.934 65.0471C61.5761 64.1197 61.9123 63.0089 61.9123 61.8776V6.00977H33.7236" fill="#BE2136"/>
<path d="M56.1752 73.7402H27.3037V80.7721H47.2579L56.1752 73.7402Z" fill="#FEFEFE"/>
<path d="M63.2071 59.8906H27.3037V66.9225H63.2071V59.8906Z" fill="#FEFEFE"/>
<path d="M63.2071 46.04H27.3037V53.0719H63.2071V46.04Z" fill="#FEFEFE"/>
<path d="M63.2071 32.1904H27.3037V39.2223H63.2071V32.1904Z" fill="#FEFEFE"/>
<path d="M63.2071 18.3408H27.3037V25.3727H63.2071V18.3408Z" fill="#FEFEFE"/>
<path d="M63.2071 4.49121H27.3037V11.5231H63.2071V4.49121Z" fill="#FEFEFE"/>
<path d="M48.9796 6.00977H26.2432V45.9387H48.9796V6.00977Z" fill="#293465"/>
<path d="M34.0403 87.916C34.0403 87.916 18.1727 80.1707 8.12423 66.8407C6.64651 64.884 5.85156 62.4891 5.85156 60.033V6.00977H34.0403" fill="#054CA4"/>
<path d="M44.2205 10.9521L44.9135 13.1127H47.1861L45.3517 14.4375L46.0549 16.598L44.2205 15.263L42.3861 16.598L43.0791 14.4375L41.2549 13.1127H43.5173L44.2205 10.9521Z" fill="white"/>
<path d="M44.2205 20.2266L44.9135 22.3769H47.1861L45.3517 23.7119L46.0549 25.8725L44.2205 24.5374L42.3861 25.8725L43.0791 23.7119L41.2549 22.3769H43.5173L44.2205 20.2266Z" fill="white"/>
<path d="M44.2205 29.5L44.9135 31.6503H47.1861L45.3517 32.9854L46.0549 35.1459L44.2205 33.8109L42.3861 35.1459L43.0791 32.9854L41.2549 31.6503H43.5173L44.2205 29.5Z" fill="white"/>
<path d="M44.2205 38.7744L44.9135 40.9247H47.1861L45.3517 42.2598L46.0549 44.4203L44.2205 43.0853L42.3861 44.4203L43.0791 42.2598L41.2549 40.9247H43.5173L44.2205 38.7744Z" fill="white"/>
<path d="M38.3202 6.6416L39.0233 8.80212H41.2857L39.4514 10.127L40.1545 12.2875L38.3202 10.9525L36.4857 12.2875L37.1889 10.127L35.3545 8.80212H37.617L38.3202 6.6416Z" fill="white"/>
<path d="M38.3202 15.916L39.0233 18.0765H41.2857L39.4514 19.4014L40.1545 21.5619L38.3202 20.2269L36.4857 21.5619L37.1889 19.4014L35.3545 18.0765H37.617L38.3202 15.916Z" fill="white"/>
<path d="M38.3202 25.1895L39.0233 27.35H41.2857L39.4514 28.6748L40.1545 30.8353L38.3202 29.5003L36.4857 30.8353L37.1889 28.6748L35.3545 27.35H37.617L38.3202 25.1895Z" fill="white"/>
<path d="M38.3202 34.4639L39.0233 36.6244H41.2857L39.4514 37.9492L40.1545 40.1098L38.3202 38.7747L36.4857 40.1098L37.1889 37.9492L35.3545 36.6244H37.617L38.3202 34.4639Z" fill="white"/>
<path d="M24.7456 21.8564L25.6832 24.7405H28.7201L26.2641 26.524L27.2017 29.4081L24.7456 27.6246L22.2895 29.4081L23.2272 26.524L20.7812 24.7405H23.808L24.7456 21.8564Z" fill="#FBEF03"/>
<path d="M18.08 28.5215L19.0176 31.4056H22.0444L19.5984 33.189L20.5361 36.0731L18.08 34.2999L15.6239 36.0731L16.5615 33.189L14.1055 31.4056H17.1424L18.08 28.5215Z" fill="#FBEF03"/>
<path d="M15.6044 37.7656L16.542 40.6497H19.579L17.1229 42.4332L18.0605 45.3173L15.6044 43.5338L13.1484 45.3173L14.0859 42.4332L11.6299 40.6497H14.6668L15.6044 37.7656Z" fill="#FBEF03"/>
<path d="M18.08 47.2637L19.0176 50.158H22.0444L19.5984 51.9414L20.5361 54.8255L18.08 53.0421L15.6239 54.8255L16.5615 51.9414L14.1055 50.158H17.1424L18.08 47.2637Z" fill="#FBEF03"/>
<path d="M24.7456 54.1221L25.6832 57.0062H28.7201L26.2641 58.7896L27.2017 61.6737L24.7456 59.8903L22.2895 61.6737L23.2272 58.7896L20.7812 57.0062H23.808L24.7456 54.1221Z" fill="#FBEF03"/>
<path d="M34.0702 19.2988V25.067L31.6142 26.8505L32.5517 23.9664L30.0957 22.1829H33.1326L34.0702 19.2988Z" fill="#FBEF03"/>
<path d="M34.0702 56.4863V62.2545L31.6142 64.038L32.5517 61.1539L30.0957 59.3704H33.1326L34.0702 56.4863Z" fill="#FBEF03"/>
</svg>
