<!DOCTYPE svg PUBLIC "-//W3C//DTD SVG 1.1//EN" "http://www.w3.org/Graphics/SVG/1.1/DTD/svg11.dtd">
<svg width="87" height="87" viewBox="0 0 87 87" fill="none" xmlns="http://www.w3.org/2000/svg">
<circle cx="43.478" cy="43.478" r="43.478" fill="#001435"/>
<path d="M35.9061 53.189C35.7332 52.872 35.4955 52.6307 35.1929 52.465C34.8903 52.2993 34.5372 52.2164 34.1338 52.2164C33.6871 52.2164 33.2908 52.3173 32.945 52.519C32.5992 52.7207 32.329 53.0089 32.1345 53.3836C31.9399 53.7582 31.8427 54.1905 31.8427 54.6804C31.8427 55.1847 31.9399 55.6242 32.1345 55.9989C32.3362 56.3735 32.6136 56.6617 32.9666 56.8634C33.3196 57.0652 33.7303 57.166 34.1986 57.166C34.775 57.166 35.2469 57.0147 35.6143 56.7121C35.9818 56.4023 36.2231 55.9737 36.3384 55.4261H33.7447V54.2697H37.8298V55.5882C37.7289 56.1142 37.5128 56.6005 37.1814 57.0472C36.8499 57.4939 36.4213 57.8541 35.8953 58.1279C35.3766 58.3944 34.793 58.5277 34.1446 58.5277C33.4169 58.5277 32.7577 58.3656 32.1669 58.0414C31.5833 57.71 31.1222 57.2525 30.7836 56.6689C30.4522 56.0853 30.2865 55.4225 30.2865 54.6804C30.2865 53.9383 30.4522 53.2755 30.7836 52.6919C31.1222 52.1011 31.5833 51.6436 32.1669 51.3194C32.7577 50.988 33.4133 50.8223 34.1338 50.8223C34.9839 50.8223 35.7224 51.0312 36.3492 51.4491C36.976 51.8598 37.4083 52.4397 37.6461 53.189H35.9061ZM41.5861 50.9196C42.3786 50.9196 43.0739 51.0745 43.6719 51.3843C44.2771 51.6941 44.7418 52.1371 45.066 52.7135C45.3974 53.2827 45.5631 53.9455 45.5631 54.702C45.5631 55.4585 45.3974 56.1214 45.066 56.6905C44.7418 57.2525 44.2771 57.6884 43.6719 57.9982C43.0739 58.308 42.3786 58.4629 41.5861 58.4629H38.9492V50.9196H41.5861ZM41.5321 57.1768C42.3246 57.1768 42.937 56.9607 43.3693 56.5284C43.8015 56.0961 44.0177 55.4873 44.0177 54.702C44.0177 53.9167 43.8015 53.3043 43.3693 52.8648C42.937 52.4181 42.3246 52.1948 41.5321 52.1948H40.4622V57.1768H41.5321ZM52.1964 53.2539C52.1964 53.6573 52.0992 54.0356 51.9047 54.3886C51.7173 54.7417 51.4183 55.0262 51.0077 55.2424C50.6042 55.4585 50.0927 55.5666 49.4731 55.5666H48.2086V58.4629H46.6956V50.9196H49.4731C50.0566 50.9196 50.5538 51.0204 50.9644 51.2222C51.3751 51.4239 51.6813 51.7013 51.883 52.0543C52.092 52.4073 52.1964 52.8072 52.1964 53.2539ZM49.4082 54.3454C49.8261 54.3454 50.1359 54.2517 50.3376 54.0644C50.5394 53.8699 50.6402 53.5997 50.6402 53.2539C50.6402 52.519 50.2296 52.1516 49.4082 52.1516H48.2086V54.3454H49.4082ZM57.1612 58.4629L55.4969 55.5234H54.7836V58.4629H53.2706V50.9196H56.1021C56.6857 50.9196 57.1828 51.024 57.5935 51.233C58.0041 51.4347 58.3103 51.7121 58.5121 52.0651C58.721 52.4109 58.8255 52.8 58.8255 53.2323C58.8255 53.7294 58.6814 54.1797 58.3932 54.5832C58.105 54.9794 57.6763 55.2532 57.1072 55.4045L58.9119 58.4629H57.1612ZM54.7836 54.3886H56.0481C56.4587 54.3886 56.7649 54.2914 56.9667 54.0968C57.1684 53.8951 57.2693 53.6177 57.2693 53.2647C57.2693 52.9189 57.1684 52.6523 56.9667 52.465C56.7649 52.2704 56.4587 52.1732 56.0481 52.1732H54.7836V54.3886Z" fill="white"/>
<path d="M51.1895 31.5337H48.7123V29.7676C48.7123 27.3327 46.739 25.3594 44.3041 25.3594C41.8692 25.3594 39.8959 27.3327 39.8959 29.7676V31.529H37.4186C36.4484 31.529 35.6572 32.3202 35.6572 33.2904V42.1068C35.6572 43.077 36.4484 43.8682 37.4186 43.8682H51.1895C52.1597 43.8682 52.9509 43.077 52.9509 42.1068V33.2951C52.9557 32.3249 52.1597 31.5337 51.1895 31.5337ZM44.3041 39.4647C43.3339 39.4647 42.5427 38.6735 42.5427 37.7033C42.5427 36.7331 43.3339 35.9419 44.3041 35.9419C45.2743 35.9419 46.0655 36.7331 46.0655 37.7033C46.0702 38.6735 45.2743 39.4647 44.3041 39.4647ZM47.0403 31.5337H41.5772V29.7676C41.5772 28.2605 42.8017 27.036 44.3088 27.036C45.8159 27.036 47.0403 28.2605 47.0403 29.7676V31.5337Z" fill="white"/>
<path d="M43.9084 8.6543L45.0858 11.0421L47.7232 11.4236L45.8158 13.2839L46.2632 15.9118L43.9084 14.6732L41.5489 15.9118L41.9963 13.2839L40.0889 11.4236L42.7263 11.0421L43.9084 8.6543Z" fill="white"/>
<path d="M43.9084 68.7441L45.0858 71.1319L47.7232 71.5134L45.8158 73.3737L46.2632 76.0017L43.9084 74.763L41.5489 76.0017L41.9963 73.3737L40.0889 71.5134L42.7263 71.1319L43.9084 68.7441Z" fill="white"/>
<path d="M13.8607 38.6973L15.0381 41.0898L17.6755 41.4712L15.7681 43.3315L16.2202 45.9595L13.8607 44.7162L11.5012 45.9595L11.9533 43.3315L10.0459 41.4712L12.6833 41.0898L13.8607 38.6973Z" fill="white"/>
<path d="M73.9505 38.6973L75.1279 41.0898L77.7653 41.4712L75.8579 43.3315L76.31 45.9595L73.9505 44.7162L71.591 45.9595L72.0432 43.3315L70.1357 41.4712L72.7731 41.0898L73.9505 38.6973Z" fill="white"/>
<path d="M59.3128 64.8594L60.4902 67.2519L63.1276 67.6333L61.2202 69.4936L61.6724 72.1216L59.3128 70.883L56.9533 72.1216L57.4054 69.4936L55.498 67.6333L58.1354 67.2519L59.3128 64.8594Z" fill="white"/>
<path d="M59.3128 13.9102L60.4902 16.2979L63.1276 16.6794L61.2202 18.5397L61.6724 21.1677L59.3128 19.9291L56.9533 21.1677L57.4054 18.5397L55.498 16.6794L58.1354 16.2979L59.3128 13.9102Z" fill="white"/>
<path d="M28.1117 64.8594L29.2938 67.2519L31.9312 67.6333L30.0237 69.4936L30.4712 72.1216L28.1117 70.883L25.7568 72.1216L26.2042 69.4936L24.2969 67.6333L26.9343 67.2519L28.1117 64.8594Z" fill="white"/>
<path d="M28.1117 13.9102L29.2938 16.2979L31.9312 16.6794L30.0237 18.5397L30.4712 21.1677L28.1117 19.9291L25.7568 21.1677L26.2042 18.5397L24.2969 16.6794L26.9343 16.2979L28.1117 13.9102Z" fill="white"/>
<path d="M70.4847 53.2451L71.6621 55.6376L74.2995 56.0191L72.3921 57.8794L72.8442 60.5074L70.4847 59.264L68.1252 60.5074L68.5773 57.8794L66.6699 56.0191L69.3073 55.6376L70.4847 53.2451Z" fill="white"/>
<path d="M70.4847 24.1396L71.6621 26.5274L74.2995 26.9136L72.3921 28.7739L72.8442 31.4019L70.4847 30.1585L68.1252 31.4019L68.5773 28.7739L66.6699 26.9136L69.3073 26.5274L70.4847 24.1396Z" fill="white"/>
<path d="M17.431 53.2451L18.6084 55.6376L21.2458 56.0191L19.3384 57.8794L19.7905 60.5074L17.431 59.264L15.0715 60.5074L15.5236 57.8794L13.6162 56.0191L16.2536 55.6376L17.431 53.2451Z" fill="white"/>
<path d="M17.431 24.1396L18.6084 26.5274L21.2458 26.9136L19.3384 28.7739L19.7905 31.4019L17.431 30.1585L15.0715 31.4019L15.5236 28.7739L13.6162 26.9136L16.2536 26.5274L17.431 24.1396Z" fill="white"/>
</svg>
