<svg width="210" height="129" viewBox="0 0 210 129" fill="none" xmlns="http://www.w3.org/2000/svg">
<path d="M16.7624 74.2676C10.689 74.2676 7.61189 78.4784 6.07332 81.8795V75.0774H0V127.713H6.07332V91.8397C6.07332 86.6571 9.31242 79.5311 14.495 79.5311C19.0297 79.5311 19.5156 83.418 19.5156 88.4387V91.9207H25.5889V89.8962C25.5889 79.6931 24.0503 74.2676 16.7624 74.2676Z" fill="black"/>
<path d="M28.9432 109.412C28.9432 122.449 32.5062 128.523 42.3045 128.523C52.1027 128.523 55.7467 122.449 55.7467 109.412V93.2973C55.7467 80.2599 52.1027 74.2676 42.3045 74.2676C32.5062 74.2676 28.9432 80.2599 28.9432 93.2973V109.412ZM35.0165 91.5158C35.0165 81.7175 37.8507 79.5311 42.3045 79.5311C46.7582 79.5311 49.6734 81.7175 49.6734 91.5158V111.274C49.6734 120.992 46.8392 123.259 42.3045 123.259C37.8507 123.259 35.0165 120.992 35.0165 111.274V91.5158Z" fill="black"/>
<path d="M60.4169 109.412C60.4169 122.449 63.9799 128.523 73.7782 128.523C83.5764 128.523 87.2204 122.449 87.2204 109.412V93.2973C87.2204 80.2599 83.5764 74.2676 73.7782 74.2676C63.9799 74.2676 60.4169 80.2599 60.4169 93.2973V109.412ZM66.4902 91.5158C66.4902 81.7175 69.3244 79.5311 73.7782 79.5311C78.2319 79.5311 81.1471 81.7175 81.1471 91.5158V111.274C81.1471 120.992 78.3129 123.259 73.7782 123.259C69.3244 123.259 66.4902 120.992 66.4902 111.274V91.5158Z" fill="black"/>
<path d="M126.615 74.2676C121.513 74.2676 118.517 77.3447 116.574 81.5556C115.44 76.454 113.011 74.2676 107.909 74.2676C102.726 74.2676 99.8921 77.4257 98.5965 80.9887V75.0774H92.5232V127.713H98.5965V89.6533C98.5965 84.5517 100.864 79.5311 105.804 79.5311C110.176 79.5311 111.229 83.3371 111.229 89.0865V127.713H117.302V89.6533C117.302 84.5517 119.57 79.5311 124.509 79.5311C128.882 79.5311 129.935 83.3371 129.935 89.0865V127.713H136.008V90.4631C136.008 79.0453 133.984 74.2676 126.615 74.2676Z" fill="black"/>
<path d="M31.7432 1.07931H23.3215L6.07332 54.6055V1.07931H0V65.8614H8.34069L25.6699 13.2259V65.8614H34.0916L55.7126 1.07931H49.0724L31.7432 54.6055V1.07931Z" fill="black"/>
<path d="M73.4625 12.4162C67.3891 12.4162 64.312 16.627 62.7734 20.0281V13.2259H56.7001V65.8614H62.7734V29.9883C62.7734 24.8057 66.0125 17.6797 71.1951 17.6797C75.7298 17.6797 76.2157 21.5666 76.2157 26.5872V30.0693H82.289V28.0448C82.289 17.8417 80.7504 12.4162 73.4625 12.4162Z" fill="black"/>
<path d="M89.9047 7.15263C91.9291 7.15263 93.5487 5.61405 93.5487 3.75157C93.5487 1.80811 91.9291 0.269531 89.9047 0.269531C87.9612 0.269531 86.2607 1.80811 86.2607 3.75157C86.2607 5.61405 87.9612 7.15263 89.9047 7.15263ZM92.9818 65.8614V13.2259H86.9085V65.8614H92.9818Z" fill="black"/>
<path d="M103.607 13.2259C106.684 12.1732 109.842 7.15263 109.842 1.07931H103.769C103.85 6.66676 101.097 11.8493 96.319 13.2259V18.4895H102.392V48.2082C102.392 59.3832 102.878 65.8614 113.567 65.8614H117.778V60.5978H114.134C108.385 60.5978 108.466 56.1441 108.466 48.2082V18.4895H117.778V13.2259H103.607Z" fill="black"/>
<path d="M134.12 12.4162C124.321 12.4162 120.596 18.4085 120.596 31.4459V47.5604C120.596 60.5978 124.321 66.6711 134.12 66.6711C143.918 66.6711 147.4 60.5978 147.4 47.5604V45.2121H141.327V49.4229C141.327 59.1402 138.654 61.4076 134.12 61.4076C129.666 61.4076 126.67 59.1402 126.67 49.4229V40.1915H147.4V31.4459C147.4 18.4085 143.918 12.4162 134.12 12.4162ZM141.327 35.7377H126.67V29.6644C126.67 19.8661 129.666 17.6797 134.12 17.6797C138.654 17.6797 141.327 19.8661 141.327 29.6644V35.7377Z" fill="black"/>
<path d="M169.465 12.4162C163.392 12.4162 160.315 16.627 158.776 20.0281V13.2259H152.703V65.8614H158.776V29.9883C158.776 24.8057 162.015 17.6797 167.198 17.6797C171.733 17.6797 172.218 21.5666 172.218 26.5872V30.0693H178.292V28.0448C178.292 17.8417 176.753 12.4162 169.465 12.4162Z" fill="black"/>
<path d="M196.782 36.3865C191.114 31.7708 187.389 30.1512 187.389 24.4018C187.389 19.8671 190.304 17.6807 193.948 17.6807C198.483 17.6807 201.236 19.3002 201.236 29.4224H207.309C207.309 18.9763 204.151 12.4171 193.948 12.4171C183.745 12.4171 181.315 19.2193 181.315 24.4018C181.315 32.9854 187.065 36.3055 191.438 39.7876C198.483 45.375 201.479 47.8043 201.479 53.5537C201.479 58.5744 199.454 61.4086 194.758 61.4086C188.846 61.4086 186.822 58.5744 186.822 48.6141H180.749C180.749 60.8417 183.502 66.6721 194.758 66.6721C205.933 66.6721 207.552 59.2222 207.552 53.5537C207.552 45.0511 202.693 41.2452 196.782 36.3865Z" fill="black"/>
<path fillRule="evenodd" clipRule="evenodd" d="M183.351 11.9743H178.295L180.057 0.958984H184.673L183.351 11.9743Z" fill="black"/>
</svg>
